<?xml version="1.0" encoding="utf-8"?>
<!-- Generator: Adobe Illustrator 23.1.0, SVG Export Plug-In . SVG Version: 6.00 Build 0)  -->
<svg version="1.1" id="Layer_1" xmlns="http://www.w3.org/2000/svg" xmlns:xlink="http://www.w3.org/1999/xlink" x="0px" y="0px"
	 viewBox="0 0 1154.9 791.9" style="enable-background:new 0 0 1154.9 791.9;" xml:space="preserve">
<style type="text/css">
	.st0{fill:#FFEF00;}
	.st1{fill:#FFFFFF;}
	.st2{fill:#03060B;}
</style>
<g>
	<polygon class="st0" points="840.2,511.9 1014.9,511.9 1014.9,651.9 840.1,651.9 796.6,610.9 796.6,553.1 	"/>
	<path class="st1" d="M296.9,250.5l3.4-1.2c2.2-1,4.8-2.8,7.8-5.3c3-2.5,6.1-5.4,9.1-8.7c3-3.3,5.7-7.7,7.9-13.2
		c2.2-5.5,3.3-11.3,3.3-17.3c0-15.9-7.2-29.6-21.6-41.1c-14.4-11.5-34-17.3-58.9-17.3H140v221h114.2c29.3,0,89.9-5.5,89.9-63.2
		C344.1,260,297.9,250.9,296.9,250.5 M211.5,198.1h26.3c5.3,0,9.6,1.6,12.9,4.7c3.3,3.1,5,6.9,5,11.5c0,4.6-1.7,8.4-5,11.5
		c-3.3,3.1-7.6,4.7-12.9,4.7h-26.3V198.1z M260.6,310.3c-4.1,3.9-9.3,5.8-15.5,5.8h-33.7v-39.7h33.7c6.2,0,11.4,1.9,15.5,5.7
		c4.1,3.8,6.2,8.5,6.2,14C266.8,301.8,264.8,306.5,260.6,310.3"/>
	<path class="st1" d="M353.7,495.1l3.4-1.2c2.2-1,4.8-2.8,7.8-5.3c3-2.5,6.1-5.4,9.1-8.7c3-3.3,5.7-7.7,7.9-13.2
		c2.2-5.5,3.3-11.3,3.3-17.3c0-15.9-7.2-29.6-21.6-41.1c-14.4-11.5-34-17.3-58.9-17.3H197v221h114c29.3,0,89.9-5.5,89.9-63.2
		C400.9,504.6,354.7,495.5,353.7,495.1 M268.5,442.7h26.1c5.3,0,9.6,1.6,12.9,4.7c3.3,3.1,5,6.9,5,11.5s-1.7,8.4-5,11.5
		c-3.3,3.1-7.7,4.7-12.9,4.7h-26.1V442.7z M317.4,555c-4.1,3.9-9.3,5.8-15.5,5.8h-33.4v-39.7h33.4c6.2,0,11.4,1.9,15.5,5.7
		c4.1,3.8,6.2,8.5,6.2,14C323.6,546.4,321.6,551.1,317.4,555"/>
	<polygon class="st1" points="527.1,313.7 420.3,313.7 420.3,279 507.5,279 507.5,228.4 420.3,228.4 420.3,200.1 527.3,200.1 
		527.3,146.3 348.8,146.3 348.8,367.3 527.1,367.3 	"/>
	<polygon class="st1" points="709.8,146.3 709.8,200.1 768.2,200.1 768.2,367.3 839.2,367.3 839.2,200.1 897.7,200.1 897.7,146.3 	
		"/>
	<path class="st1" d="M629,310.1c-3.9,3.4-9.3,5.1-16.3,5.1c-6.9,0-14.2-1.9-21.7-5.7c-7.5-3.8-12.5-6.9-15-9.2
		c-1.4-1.3-2.7-2.5-3.7-3.5l-42.2,40l2.7,2.7c2.6,2.7,6.5,5.9,11.9,9.6c5.3,3.7,11.5,7.4,18.6,11.1c7,3.7,15.8,6.9,26.4,9.5
		c10.5,2.6,21.4,3.9,32.6,3.9c27.9,0,50.2-7.2,66.7-21.7c16.5-14.5,24.8-32,24.8-52.4c0-11.8-2.4-22.2-7.2-31.1
		c-4.8-8.9-10.7-15.7-17.9-20.2c-7.1-4.5-14.9-8.6-23.2-12.2c-7.6-3.3-14.7-5.8-21.3-7.5c-0.6-0.2-1.3-0.3-1.9-0.5
		c-7.1-1.7-13.1-3.9-17.8-6.5c-4.7-2.6-7.1-5.6-7.1-9c0-4.1,1.6-7.5,4.9-10.2c3.3-2.7,8-4,14-4c14.4,0,23.3,6.5,27.8,11.2l42.3-40.2
		l-0.8-0.9c-1.8-2.4-5-5.1-9.6-8.1c-4.5-3-9.8-6.1-15.8-9.2c-6-3.1-13.8-5.7-23.4-7.9c-9.6-2.2-19.6-3.3-30.1-3.3
		c-26.5,0-47.8,7-64,21c-16.2,14-24.3,30.5-24.3,49.4c0,10.1,1.8,19.1,5.4,27.1c3.6,8,8.2,14.4,13.7,19.1
		c5.5,4.7,11.7,8.9,18.6,12.5c5.7,3,11.5,5.5,17.3,7.6c1.1,0.4,2.2,0.8,3.3,1.1c6.9,2.2,13.2,4.3,18.8,6.2
		c5.6,1.9,10.2,3.9,13.8,6.1c3.6,2.2,5.4,4.7,5.4,7.7C634.9,302.6,632.9,306.7,629,310.1"/>
	<path class="st1" d="M527.3,522.2c0,14.6-11.8,26.4-26.4,26.6c-14.7,0.1-26.7-11.8-26.7-26.6V391h-71.5v127.9
		c0,52.7,42.8,95.5,95.5,95.5h4.5c52.7,0,95.5-42.8,95.5-95.5V391h-70.9V522.2z"/>
	<polygon class="st1" points="720.4,466.2 673.5,391 601.9,391 684.6,533.1 684.6,612 756.1,612 756.1,533.1 838.8,391 767.2,391 	
		"/>
	<path class="st2" d="M831.4,581.8c0,4.8-3.9,8.6-8.6,8.6c-4.8,0-8.6-3.9-8.6-8.6s3.9-8.6,8.6-8.6
		C827.5,573.1,831.4,577,831.4,581.8"/>
</g>
<g>
	<path class="st1" d="M850.5,451.3c5.8,0,10.4,4.5,10.4,10.2c0,5.7-4.6,10.3-10.5,10.3c-5.9,0-10.6-4.6-10.6-10.3
		C839.8,455.8,844.5,451.3,850.5,451.3L850.5,451.3z M850.3,453.4c-4.4,0-7.9,3.7-7.9,8.2c0,4.6,3.4,8.2,8,8.2
		c4.4,0.1,7.8-3.6,7.8-8.1C858.3,457.1,854.9,453.4,850.3,453.4L850.3,453.4z M848.8,466.9h-2.4v-10.2c0.9-0.1,2.3-0.3,3.9-0.3
		c1.9,0,2.8,0.3,3.5,0.8c0.6,0.4,1.1,1.2,1.1,2.2c0,1.3-0.9,2.1-2.1,2.4v0.1c1,0.3,1.5,1.1,1.8,2.5c0.3,1.6,0.6,2.1,0.8,2.5h-2.5
		c-0.3-0.4-0.5-1.3-0.8-2.5c-0.2-1.1-0.8-1.6-2.1-1.6h-1.1V466.9z M848.8,461.1h1.1c1.3,0,2.4-0.4,2.4-1.5c0-0.9-0.7-1.6-2.2-1.6
		c-0.6,0-1.1,0.1-1.3,0.1V461.1z"/>
</g>
</svg>
