<?xml version="1.0" encoding="utf-8"?>
<!-- Generator: Adobe Illustrator 24.2.3, SVG Export Plug-In . SVG Version: 6.00 Build 0)  -->
<svg version="1.1" id="Layer_1" xmlns="http://www.w3.org/2000/svg" xmlns:xlink="http://www.w3.org/1999/xlink" x="0px" y="0px"
	 viewBox="0 0 1940 500" style="enable-background:new 0 0 1940 500;" xml:space="preserve">
<style type="text/css">
	.st0{fill:#FFF100;}
	.st1{fill:#FFFFFF;}
	.st2{fill:#122028;}
</style>
<g>
	<g>
		<polygon class="st0" points="1063.6,270.1 1116.2,270.1 1116.2,312.2 1063.6,312.2 1050.6,299.9 1050.6,282.5 		"/>
		<path class="st1" d="M900.3,191.6l1-0.3c0.7-0.3,1.5-0.8,2.4-1.6c0.9-0.8,1.8-1.6,2.7-2.6c0.9-1,1.7-2.3,2.4-4
			c0.7-1.7,1-3.4,1-5.2c0-4.8-2.2-8.9-6.5-12.4c-4.3-3.4-10.2-5.2-17.7-5.2h-32.4v66.4h34.4c8.8,0,27.1-1.6,27.1-19
			C914.5,194.4,900.6,191.7,900.3,191.6 M874.6,175.8h8c1.6,0,2.8,0.5,3.9,1.4c1,0.9,1.5,2,1.5,3.4s-0.5,2.5-1.5,3.4
			c-1,0.9-2.3,1.4-3.9,1.4h-8V175.8z M889.4,209.5c-1.3,1.1-2.8,1.7-4.7,1.7h-10.1v-11.9h10.1c1.8,0,3.4,0.6,4.7,1.7
			c1.3,1.1,1.8,2.5,1.8,4.2C891.3,206.9,890.6,208.4,889.4,209.5"/>
		<path class="st1" d="M917.4,265.1l1-0.3c0.7-0.3,1.5-0.8,2.4-1.6c0.9-0.8,1.8-1.6,2.7-2.6c0.9-1,1.7-2.3,2.4-4
			c0.7-1.7,1-3.4,1-5.2c0-4.8-2.2-8.9-6.5-12.4c-4.3-3.4-10.2-5.2-17.7-5.2h-32.4v66.4h34.2c8.8,0,27.1-1.6,27.1-19
			C931.6,268,917.7,265.2,917.4,265.1 M891.8,249.3h7.8c1.6,0,2.8,0.5,3.9,1.4c1,0.9,1.5,2,1.5,3.4s-0.5,2.5-1.5,3.4
			c-1,0.9-2.3,1.4-3.9,1.4h-7.8V249.3z M906.4,283.1c-1.3,1.1-2.8,1.7-4.7,1.7h-10v-11.9h10c1.8,0,3.4,0.6,4.7,1.7
			c1.3,1.1,1.8,2.5,1.8,4.2C908.4,280.5,907.7,282,906.4,283.1"/>
		<polygon class="st1" points="969.6,210.6 937.4,210.6 937.4,200.1 963.7,200.1 963.7,185 937.4,185 937.4,176.5 969.6,176.5 
			969.6,160.3 915.9,160.3 915.9,226.7 969.6,226.7 		"/>
		<polygon class="st1" points="1024.5,160.3 1024.5,176.5 1042,176.5 1042,226.7 1063.4,226.7 1063.4,176.5 1080.9,176.5 
			1080.9,160.3 		"/>
		<path class="st1" d="M1000.2,209.5c-1.1,1-2.8,1.5-4.9,1.5c-2,0-4.2-0.6-6.5-1.7c-2.3-1.1-3.8-2-4.6-2.7c-0.5-0.3-0.8-0.8-1.1-1
			l-12.6,12.1l0.8,0.8c0.8,0.8,1.9,1.7,3.5,2.8c1.6,1.1,3.4,2.3,5.6,3.3c2.2,1.1,4.8,2,8,2.8c3.2,0.8,6.5,1.1,9.8,1.1
			c8.4,0,15.1-2.2,20-6.5c5-4.3,7.5-9.5,7.5-15.8c0-3.5-0.7-6.7-2.2-9.3c-1.5-2.7-3.2-4.7-5.3-6c-2.2-1.4-4.4-2.6-6.9-3.6
			c-2.3-1-4.4-1.7-6.4-2.3c-0.2,0-0.3-0.1-0.6-0.1c-2.2-0.5-4-1.1-5.3-1.9s-2.2-1.7-2.2-2.7c0-1.3,0.5-2.3,1.5-3.1
			c1-0.8,2.4-1.3,4.2-1.3c4.3,0,6.9,1.9,8.4,3.4l12.7-12.1l-0.2-0.2c-0.6-0.7-1.5-1.5-2.8-2.4c-1.4-0.9-3-1.8-4.8-2.7
			c-1.8-0.9-4.2-1.7-7.1-2.4c-2.8-0.7-5.9-1-9.1-1c-8,0-14.3,2.2-19.2,6.4s-7.3,9.2-7.3,14.9c0,3.1,0.6,5.8,1.6,8.2
			c1.1,2.4,2.5,4.3,4.1,5.8c1.7,1.4,3.5,2.6,5.6,3.8c1.7,0.9,3.4,1.7,5.2,2.3c0.3,0.1,0.7,0.2,1,0.3c2,0.7,4,1.3,5.7,1.8
			c1.7,0.6,3.1,1.1,4.1,1.8c1.1,0.7,1.6,1.4,1.6,2.3C1002,207.3,1001.3,208.5,1000.2,209.5"/>
		<path class="st1" d="M969.6,273.2c0,4.4-3.5,8-8,8s-8.1-3.5-8.1-8v-39.4h-21.4v38.4c0,15.8,12.9,28.6,28.7,28.6h1.4
			c15.8,0,28.7-12.8,28.7-28.6v-38.4h-21.3V273.2L969.6,273.2z"/>
		<polygon class="st1" points="1027.7,256.4 1013.6,233.8 992,233.8 1016.9,276.5 1016.9,300.1 1038.4,300.1 1038.4,276.5 
			1063.3,233.8 1041.7,233.8 		"/>
		<path class="st2" d="M1061,291.2c0,1.5-1.1,2.6-2.6,2.6c-1.5,0-2.6-1.1-2.6-2.6c0-1.5,1.1-2.6,2.6-2.6
			C1059.9,288.6,1061,289.7,1061,291.2"/>
	</g>
	<g>
		<path class="st1" d="M1063,255.2c0-1.9,1.6-3.5,3.5-3.5c2,0,3.5,1.6,3.5,3.5c0,2-1.6,3.5-3.5,3.5S1063,257.2,1063,255.2z
			 M1069.7,255.1c0-1.8-1.4-3.1-3.1-3.1s-3.1,1.4-3.1,3.1c0,1.8,1.4,3.1,3.1,3.1C1068.3,258.3,1069.7,256.9,1069.7,255.1z
			 M1065.4,253.3h1.3c0.8,0,1.4,0.3,1.4,1l0,0c0,0.6-0.3,0.9-0.9,0.9l1,1.6h-0.6l-1-1.6h-0.6v1.6h-0.6V253.3z M1066.6,255
			c0.6,0,0.8-0.2,0.8-0.6l0,0c0-0.5-0.2-0.6-0.8-0.6h-0.7v1.3h0.7V255z"/>
	</g>
</g>
</svg>
